<?xml version="1.0" encoding="UTF-8"?>
<!DOCTYPE svg PUBLIC "-//W3C//DTD SVG 1.1//EN" "http://www.w3.org/Graphics/SVG/1.1/DTD/svg11.dtd">
<!-- Creator: CorelDRAW X7 -->
<svg xmlns="http://www.w3.org/2000/svg" xml:space="preserve" width="2403px" height="1953px"
     version="1.1"
     style="shape-rendering:geometricPrecision; text-rendering:geometricPrecision; image-rendering:optimizeQuality; fill-rule:evenodd; clip-rule:evenodd"
     viewBox="0 0 2403 1953">
 <defs>
  <style type="text/css">
   <![CDATA[
    .fil1 {fill:#EE3F58}
    .fil0 {fill:#FEFEFE}
   ]]>
  </style>
 </defs>
    <g id="VI">
  <metadata id="CorelCorpID_0Corel-Layer"/>
        <g id="_363449968">
   <path class="fil0"
         d="M1652 625c115,0 203,87 203,206 0,47 -19,97 -47,125l0 0 -713 910c0,0 -9,9 -9,9 -41,50 -100,78 -156,78 -69,0 -129,-37 -169,-87l-713 -910 0 0 0 0c-28,-37 -47,-78 -47,-125 0,-119 97,-206 213,-206 59,0 119,31 156,78l0 0 560 703 556 -712c37,-38 97,-69 165,-69l0 0 1 0z"/>
            <path class="fil0"
                  d="M2198 616c-118,0 -215,96 -215,215l0 0 0 906c0,119 97,207 215,207 107,0 204,-88 204,-207l0 0 0 -906 0 0c0,-119 -97,-215 -204,-215z"/>
            <ellipse class="fil1" cx="2198" cy="216" rx="206" ry="216"/>
  </g>
 </g>
</svg>
