<?xml version="1.0" ?><svg viewBox="0 0 480 480" xmlns="http://www.w3.org/2000/svg"><g data-name="23-medicine" id="_23-medicine"><path d="M264,144l-48-36V72h8a8,8,0,0,0,8-8V16a8,8,0,0,0-8-8H64a8,8,0,0,0-8,8V64a8,8,0,0,0,8,8h8v36L24,144A40.191,40.191,0,0,0,8,176V432a40.045,40.045,0,0,0,40,40H240a40.045,40.045,0,0,0,40-40V176A40.191,40.191,0,0,0,264,144ZM104,56V24h32V56Zm48-32h32V56H152Zm64,32H200V24h16ZM72,24H88V56H72ZM33.6,156.8l51.2-38.4A8,8,0,0,0,88,112V72H200v40a8,8,0,0,0,3.2,6.4l51.2,38.4A24.113,24.113,0,0,1,264,176v8H24v-8A24.113,24.113,0,0,1,33.6,156.8ZM264,376H24V200H264Zm-24,80H48a24.027,24.027,0,0,1-24-24V392H264v40A24.028,24.028,0,0,1,240,456Z"/><path d="M96,312h24v24a8,8,0,0,0,8,8h32a8,8,0,0,0,8-8V312h24a8,8,0,0,0,8-8V272a8,8,0,0,0-8-8H168V240a8,8,0,0,0-8-8H128a8,8,0,0,0-8,8v24H96a8,8,0,0,0-8,8v32A8,8,0,0,0,96,312Z"/><path d="M444.284,344.4a40.046,40.046,0,0,0,0-56.569c-14.784-15.49-41.787-15.5-56.568,0l-67.882,67.883A40,40,0,0,0,376.4,412.284Zm-79.2,56.568a24,24,0,1,1-33.941-33.94l28.284-28.284,33.941,33.94Z"/><path d="M432,392a40,40,0,1,0,40,40A40.045,40.045,0,0,0,432,392Zm0,16a24.039,24.039,0,0,1,22.624,16H409.376A24.039,24.039,0,0,1,432,408Zm0,48a24.039,24.039,0,0,1-22.624-16h45.248A24.039,24.039,0,0,1,432,456Z"/><path d="M376,256a40,40,0,1,0-40,40A40.045,40.045,0,0,0,376,256Zm-40-24a24.039,24.039,0,0,1,22.624,16H313.376A24.039,24.039,0,0,1,336,232Zm-22.624,32h45.248a24,24,0,0,1-45.248,0Z"/></g></svg>